<svg width="185" height="177" viewBox="0 0 185 177" fill="none" xmlns="http://www.w3.org/2000/svg">
<g id="Lager_1" clip-path="url(#clip0_2804_6029)">
<g id="Group">
<path id="Vector" opacity="0.95" d="M103.076 170.323C101.256 170.323 99.7812 171.814 99.7812 173.658C99.7812 175.503 101.256 176.993 103.076 176.993C104.896 176.993 106.37 175.503 106.37 173.658C106.37 171.814 104.896 170.323 103.076 170.323Z" fill="#C2A94B"/>
<path id="Vector_2" d="M109.886 170.323C108.066 170.323 106.592 171.814 106.592 173.658C106.592 175.503 108.066 176.993 109.886 176.993C111.707 176.993 113.181 175.503 113.181 173.658C113.181 171.814 111.707 170.323 109.886 170.323Z" fill="#C2A94B"/>
<path id="Vector_3" opacity="0.55" d="M75.8317 170.323C74.0115 170.323 72.5371 171.814 72.5371 173.658C72.5371 175.503 74.0115 176.993 75.8317 176.993C77.6518 176.993 79.1262 175.503 79.1262 173.658C79.1262 171.814 77.6518 170.323 75.8317 170.323Z" fill="#C2A94B"/>
<path id="Vector_4" opacity="0.65" d="M82.6422 170.323C80.8221 170.323 79.3477 171.814 79.3477 173.658C79.3477 175.503 80.8221 176.993 82.6422 176.993C84.4624 176.993 85.9368 175.503 85.9368 173.658C85.9368 171.814 84.4624 170.323 82.6422 170.323Z" fill="#C2A94B"/>
<path id="Vector_5" opacity="0.85" d="M96.2633 170.323C94.4431 170.323 92.9688 171.814 92.9688 173.658C92.9688 175.503 94.4431 176.993 96.2633 176.993C98.0835 176.993 99.5579 175.503 99.5579 173.658C99.5579 171.814 98.0835 170.323 96.2633 170.323Z" fill="#C2A94B"/>
<path id="Vector_6" opacity="0.75" d="M89.4469 170.323C87.6267 170.323 86.1523 171.814 86.1523 173.658C86.1523 175.503 87.6267 176.993 89.4469 176.993C91.2671 176.993 92.7415 175.503 92.7415 173.658C92.7415 171.814 91.2671 170.323 89.4469 170.323Z" fill="#C2A94B"/>
<g id="Group_2">
<path id="Vector_7" d="M113.09 163.967H107.368V161.737H110.428C110.493 161.737 110.559 161.711 110.611 161.665C110.656 161.62 110.683 161.554 110.683 161.482V159.089C110.683 158.951 110.572 158.834 110.428 158.834H107.368V156.957H112.751C112.888 156.957 113.005 156.846 113.005 156.702V154.309C113.005 154.243 112.979 154.178 112.933 154.125C112.888 154.08 112.822 154.054 112.751 154.054H104.191V154.047C104.126 154.047 104.061 154.073 104.009 154.119C103.963 154.165 103.937 154.23 103.937 154.302L103.924 166.603C103.924 166.746 104.035 166.858 104.178 166.858H113.077V166.864C113.142 166.864 113.207 166.838 113.26 166.792C113.312 166.746 113.331 166.681 113.331 166.609V164.216C113.331 164.078 113.22 163.961 113.077 163.961L113.09 163.967Z" fill="#C2A94B"/>
<path id="Vector_8" d="M83.3009 154.06H80.4173C80.3521 154.06 80.2868 154.086 80.2346 154.132C80.189 154.178 80.1629 154.243 80.1629 154.315V160.73L77.3641 154.217C77.325 154.125 77.2336 154.06 77.1293 154.06H73.4302C73.2867 154.06 73.1758 154.171 73.1758 154.315V166.622C73.1758 166.766 73.2867 166.877 73.4302 166.877H76.3529C76.4182 166.877 76.4834 166.851 76.5356 166.805C76.5878 166.759 76.6074 166.694 76.6074 166.622V159.35L79.8302 166.727C79.8693 166.818 79.9606 166.877 80.065 166.877H83.3009C83.3661 166.877 83.4313 166.851 83.4835 166.805C83.5292 166.759 83.5553 166.694 83.5553 166.622V154.315C83.5553 154.171 83.4444 154.06 83.3009 154.06Z" fill="#C2A94B"/>
<path id="Vector_9" d="M70.684 154.06H67.4416C67.4416 154.06 67.3764 154.073 67.3568 154.093C67.3307 154.119 67.3242 154.145 67.3242 154.178V162.077C67.3242 162.94 66.6196 163.647 65.7585 163.647C64.8973 163.647 64.1927 162.94 64.1927 162.077V155.597V155.133V154.178C64.1927 154.112 64.1406 154.054 64.0688 154.054H60.8264C60.7938 154.054 60.7612 154.067 60.7416 154.086C60.722 154.106 60.709 154.139 60.709 154.171V162.071C60.709 164.863 62.9793 167.139 65.765 167.139C68.5507 167.139 70.821 164.863 70.821 162.071V155.126V154.171C70.821 154.106 70.7688 154.047 70.6971 154.047L70.684 154.06Z" fill="#C2A94B"/>
<path id="Vector_10" d="M89.3613 154.315C89.3613 154.171 89.2504 154.06 89.1068 154.06H86.1841C86.0471 154.06 85.9297 154.171 85.9297 154.315V166.609C85.9297 166.674 85.9558 166.74 86.0015 166.792C86.0471 166.838 86.1124 166.864 86.1841 166.864H89.1068C89.1721 166.864 89.2373 166.838 89.2895 166.792C89.3352 166.746 89.3613 166.681 89.3613 166.609V154.315Z" fill="#C2A94B"/>
<path id="Vector_11" d="M100.649 159.932C101.308 159.311 101.725 158.435 101.725 157.454C101.725 155.577 100.205 154.053 98.3327 154.053C98.3066 154.053 98.2805 154.053 98.2609 154.053H96.6691H91.9849C91.8479 154.053 91.7305 154.165 91.7305 154.309V166.602C91.7305 166.668 91.75 166.733 91.7957 166.786C91.8414 166.831 91.9066 166.857 91.9784 166.857H96.6691H97.5041H98.2674C100.401 166.857 102.136 165.125 102.136 162.98C102.136 161.737 101.549 160.632 100.642 159.926L100.649 159.932ZM95.0903 156.617H97.6476C98.15 156.617 98.561 157.029 98.561 157.532C98.561 158.036 98.15 158.448 97.6476 158.448H95.0903V156.617ZM97.615 163.81H95.0968V161.136H97.6215C98.3587 161.136 98.9524 161.737 98.9524 162.47C98.9524 163.202 98.3522 163.804 97.6215 163.804L97.615 163.81Z" fill="#C2A94B"/>
<path id="Vector_12" d="M124.956 154.152C124.91 154.106 124.845 154.08 124.773 154.08L115.176 154.06C115.039 154.06 114.922 154.171 114.922 154.315V156.689C114.922 156.833 115.033 156.944 115.17 156.944H118.184L118.171 166.616C118.171 166.681 118.197 166.746 118.243 166.799C118.288 166.844 118.353 166.871 118.425 166.871H121.459C121.596 166.871 121.713 166.759 121.713 166.616L121.726 156.95H124.766C124.903 156.95 125.021 156.839 125.021 156.695V154.322C125.021 154.256 125.001 154.191 124.949 154.139L124.956 154.152Z" fill="#C2A94B"/>
</g>
</g>
<g id="Group_3">
<path id="Vector_13" d="M92.4672 146.54C125.648 146.54 152.546 119.578 152.546 86.3192C152.546 53.0602 125.648 26.0985 92.4672 26.0985C59.2868 26.0985 32.3887 53.0602 32.3887 86.3192C32.3887 119.578 59.2868 146.54 92.4672 146.54Z" fill="#12326E"/>
<g id="Group_4">
<path id="Vector_14" d="M126.085 95.1211L105.652 50.8172C103.48 46.0958 98.3391 43.0157 92.6372 43.0157C86.9353 43.0157 82.0359 45.9781 79.7852 50.5229C85.2913 50.9153 91.0584 62.9084 92.3502 65.7399L116.932 121.363C119.046 120.049 120.533 118.597 120.533 118.597C127.612 112.542 129.81 103.223 126.079 95.1211H126.085Z" fill="white"/>
<path id="Vector_15" d="M105.346 110.436C105.346 100.261 98.352 93.944 89.7274 93.944H80.47L88.8141 75.065C89.3034 66.8451 82.5642 54.0672 78.5063 53.2563L59.2021 95.1211C55.4705 103.223 57.6755 112.542 64.7474 118.597C64.7474 118.597 66.2414 120.049 68.3486 121.363L73.1763 110.436H105.339H105.346Z" fill="white"/>
</g>
</g>
<g id="Group_5">
<path id="Vector_16" d="M149.01 86.3192C149.01 55.12 123.684 29.7344 92.5587 29.7344C61.4332 29.7344 36.1074 55.12 36.1074 86.3192C36.1074 117.518 61.4332 142.897 92.5587 142.897C123.684 142.897 149.01 117.512 149.01 86.3192ZM92.5587 135.75C79.387 135.75 67.0046 130.61 57.6885 121.272C48.3789 111.934 43.2446 99.5221 43.2446 86.3192C43.2446 73.1163 48.3789 60.7046 57.6885 51.3665C76.9144 32.0885 108.203 32.0885 127.429 51.3665C136.745 60.7046 141.873 73.1163 141.873 86.3126C141.873 99.509 136.745 111.934 127.429 121.272C118.113 130.61 105.73 135.75 92.5587 135.75Z" fill="#C2A94B"/>
<g id="Group_6">
<path id="Vector_17" d="M49.0711 155.662C47.3619 155.924 45.7766 156.591 44.3544 157.454C42.9387 158.304 41.7318 159.305 40.8771 160.096C40.0225 160.887 39.5332 161.469 39.5332 161.469C40.988 161.933 42.3124 162.215 43.5128 162.345C44.7262 162.45 45.8222 162.391 46.7943 162.241C48.7319 161.953 50.2324 161.181 51.348 160.364C52.4636 159.54 53.2138 158.638 53.6966 157.944C54.1728 157.251 54.3816 156.767 54.3816 156.767C53.4617 156.212 52.5419 155.911 51.6611 155.734C50.7869 155.551 49.9192 155.544 49.0646 155.669L49.0711 155.662Z" fill="#C2A94B"/>
<path id="Vector_18" d="M56.045 148.096C55.8232 147.37 55.5361 146.69 55.2099 146.069C54.551 144.853 53.8203 143.774 53.2267 143.035C52.9331 142.669 52.6721 142.381 52.4829 142.185C52.3003 141.982 52.1959 141.871 52.1959 141.871C51.126 144.271 50.7672 146.285 50.8193 148.044C50.8454 148.914 50.9759 149.724 51.1847 150.431C51.4 151.13 51.687 151.758 52.0002 152.307C52.3133 152.857 52.6656 153.334 53.0049 153.74C53.3571 154.132 53.7029 154.439 54.0095 154.688C54.6163 155.178 55.0534 155.407 55.0534 155.407C56.2603 153.661 56.5865 151.922 56.4886 150.346C56.4364 149.554 56.2668 148.815 56.0385 148.096H56.045Z" fill="#C2A94B"/>
<path id="Vector_19" d="M44.666 152.517C45.2336 151.896 45.5011 151.444 45.5011 151.444C44.666 150.771 43.8114 150.326 42.9502 150.051C42.0956 149.77 41.2475 149.626 40.3929 149.639C39.5382 149.639 38.6836 149.777 37.8485 149.986C37.0331 150.182 36.2306 150.463 35.4739 150.79C33.9668 151.444 32.636 152.268 31.6835 152.935C30.7375 153.602 30.1699 154.112 30.1699 154.112C31.553 154.766 32.7991 155.25 33.9929 155.512C35.1868 155.773 36.2698 155.871 37.2484 155.858C39.2055 155.826 40.8104 155.25 42.0173 154.596C43.2308 153.929 44.0984 153.138 44.666 152.517Z" fill="#C2A94B"/>
<path id="Vector_20" d="M45.4168 149.332C45.9518 149.908 46.3562 150.189 46.3562 150.189C47.7784 148.619 48.3395 146.939 48.4504 145.356C48.5548 143.774 48.196 142.289 47.7458 140.949C47.511 140.288 47.237 139.68 46.9564 139.137C46.689 138.581 46.428 138.085 46.1801 137.673C45.6973 136.855 45.3124 136.384 45.3124 136.384C42.5919 140.785 42.755 144.362 43.7467 146.703C44.2099 147.907 44.8949 148.75 45.4233 149.326L45.4168 149.332Z" fill="#C2A94B"/>
<path id="Vector_21" d="M36.4338 145.945C37.0796 145.402 37.4058 144.99 37.4058 144.99C35.9379 143.421 34.2483 142.767 32.5781 142.518C30.895 142.289 29.1139 142.584 27.5482 143.009C25.9694 143.453 24.5407 144.094 23.5164 144.63C22.4922 145.167 21.8594 145.598 21.8594 145.598C24.3646 147.318 26.7066 148.031 28.6377 148.273C30.6144 148.469 32.2454 148.142 33.5306 147.652C34.8224 147.155 35.7814 146.481 36.4207 145.945H36.4338Z" fill="#C2A94B"/>
<path id="Vector_22" d="M38.4177 143.865C40.0421 142.492 40.812 140.916 41.1382 139.353C41.4709 137.777 41.2817 136.293 41.0207 134.887C40.7402 133.5 40.2509 132.33 39.8986 131.434C39.5268 130.558 39.2136 130.028 39.2136 130.028C37.5761 132.042 36.6758 133.919 36.2583 135.632C35.8538 137.332 35.9843 138.81 36.2844 140.059C36.591 141.302 37.1651 142.23 37.6087 142.878C38.0589 143.519 38.4177 143.859 38.4177 143.859V143.865Z" fill="#C2A94B"/>
<path id="Vector_23" d="M26.0539 139.654C27.3913 139.34 28.4482 138.784 29.1593 138.333C29.8704 137.882 30.2488 137.516 30.2488 137.516C29.5899 136.672 28.9244 135.985 28.1611 135.495C27.4044 135.004 26.5954 134.671 25.7864 134.436C24.1555 133.978 22.3614 134.03 20.7369 134.259C19.119 134.488 17.6185 134.933 16.5356 135.325C15.4461 135.717 14.7676 136.064 14.7676 136.064C15.3352 136.567 15.8962 137.019 16.4377 137.417C16.9988 137.803 17.5533 138.13 18.0948 138.418C19.1712 138.987 20.1628 139.386 21.1349 139.615C23.0725 140.072 24.7165 139.974 26.0604 139.654H26.0539Z" fill="#C2A94B"/>
<path id="Vector_24" d="M30.7115 135.462C31.0637 136.168 31.3965 136.528 31.3965 136.528C33.1971 135.371 34.1365 133.932 34.6715 132.421C35.2064 130.904 35.2456 129.381 35.1412 127.981C35.0629 126.562 34.7171 125.339 34.4888 124.411C34.2474 123.489 34.006 122.926 34.006 122.926C32.1141 124.705 30.9594 126.458 30.3265 128.099C29.7264 129.714 29.6285 131.218 29.7655 132.493C29.9416 133.742 30.3526 134.762 30.7049 135.462H30.7115Z" fill="#C2A94B"/>
<path id="Vector_25" d="M19.681 130.721C21.0706 130.571 22.1796 130.172 22.9429 129.819C23.7062 129.466 24.1303 129.152 24.1303 129.152C23.5823 128.23 23.0017 127.471 22.3232 126.876C21.6512 126.274 20.8749 125.849 20.0985 125.516C18.5458 124.842 16.7844 124.646 15.1273 124.666C13.4637 124.692 11.9502 124.921 10.815 125.169C9.68638 125.411 8.96875 125.666 8.96875 125.666C12.9875 130.283 16.9736 130.996 19.6875 130.734L19.681 130.721Z" fill="#C2A94B"/>
<path id="Vector_26" d="M25.4026 128.328C27.3272 127.432 28.4819 126.104 29.18 124.705C29.9106 123.273 30.1846 121.749 30.2368 120.363C30.3412 118.95 30.2107 117.669 30.0607 116.74C29.9498 115.792 29.7932 115.197 29.7932 115.197C25.5266 118.218 24.3588 121.546 24.3262 124.11C24.3327 125.372 24.5937 126.438 24.8546 127.183C25.1286 127.916 25.4091 128.328 25.4091 128.328H25.4026Z" fill="#C2A94B"/>
<path id="Vector_27" d="M14.5662 121.017C15.9623 121.056 17.1105 120.808 17.9129 120.559C18.7154 120.311 19.1786 120.056 19.1786 120.056C18.35 118.074 17.1823 116.76 15.6622 115.91C14.1943 115.04 12.5046 114.595 10.8541 114.393C9.21658 114.19 7.63127 114.229 6.48959 114.321C5.34138 114.412 4.59766 114.563 4.59766 114.563C6.29387 117.106 8.07489 118.722 9.82982 119.67C11.5587 120.631 13.1505 120.978 14.5662 121.01V121.017Z" fill="#C2A94B"/>
<path id="Vector_28" d="M20.5472 119.408C22.5761 118.774 23.9004 117.616 24.7812 116.315C25.6488 115.014 26.1708 113.523 26.4056 112.156C26.647 110.789 26.7514 109.481 26.7122 108.546C26.6927 108.062 26.6796 107.677 26.6731 107.415C26.6535 107.14 26.6405 106.99 26.6405 106.99C25.4857 107.598 24.5137 108.246 23.6982 108.926C22.8892 109.599 22.2564 110.292 21.7476 110.992C20.7298 112.391 20.1949 113.837 20.0513 115.079C19.8882 116.328 19.9731 117.44 20.1622 118.198C20.3449 118.957 20.5537 119.402 20.5537 119.402L20.5472 119.408Z" fill="#C2A94B"/>
<path id="Vector_29" d="M10.7823 110.711C12.1523 110.94 13.3266 110.848 14.1552 110.711C14.9837 110.574 15.473 110.384 15.473 110.384C15.2316 109.338 14.7945 108.468 14.3183 107.709C13.8355 106.951 13.2353 106.323 12.5568 105.8C11.1737 104.754 9.59497 104.08 7.99009 103.655C6.39826 103.23 4.83905 103.06 3.67779 102.994C2.51654 102.929 1.75977 102.981 1.75977 102.981C2.43825 104.355 3.1624 105.499 3.90613 106.454C4.68247 107.402 5.48491 108.147 6.26778 108.743C7.82047 109.933 9.41882 110.475 10.7888 110.704L10.7823 110.711Z" fill="#C2A94B"/>
<path id="Vector_30" d="M16.9136 109.926C19.0013 109.573 20.4757 108.599 21.526 107.428C22.061 106.84 22.4589 106.199 22.8243 105.538C23.1896 104.871 23.4701 104.191 23.692 103.531C24.103 102.21 24.3704 100.935 24.4813 99.9929C24.5401 99.5221 24.5662 99.1363 24.5727 98.8682C24.5857 98.5935 24.5988 98.4431 24.5988 98.4431C22.1393 99.339 20.4431 100.49 19.2231 101.752C18.6229 102.38 18.1336 103.034 17.7683 103.681C17.416 104.322 17.1681 104.963 16.9984 105.578C16.6461 106.807 16.607 107.906 16.6983 108.684C16.7701 109.462 16.9201 109.933 16.9201 109.933L16.9136 109.926Z" fill="#C2A94B"/>
<path id="Vector_31" d="M8.40044 99.9929C9.72479 100.405 10.8926 100.47 11.7341 100.444C12.5757 100.418 13.0846 100.3 13.0846 100.3C12.9867 99.2278 12.7127 98.3057 12.3083 97.4948C11.8972 96.684 11.4275 95.9777 10.8208 95.363C9.62693 94.1402 8.0612 93.2639 6.56722 92.6296C5.05368 91.9953 3.54014 91.616 2.39845 91.4002C1.2633 91.1844 0.5 91.1321 0.5 91.1321C2.38541 96.9521 5.77783 99.1754 8.40044 99.9863V99.9929Z" fill="#C2A94B"/>
<path id="Vector_32" d="M19.492 98.1749C20.7119 97.1482 21.5013 95.86 22.1537 94.5979C22.78 93.3358 23.1258 92.1129 23.4063 91.1909C23.6607 90.2754 23.739 89.6672 23.739 89.6672C21.2077 90.2296 19.3419 91.1517 17.9588 92.2372C16.5758 93.3227 15.7799 94.5652 15.2514 95.7292C14.7034 96.8997 14.599 97.9787 14.5468 98.7634C14.5077 99.5482 14.5795 100.039 14.5795 100.039C16.6932 99.9667 18.285 99.2016 19.4985 98.1814L19.492 98.1749Z" fill="#C2A94B"/>
<path id="Vector_33" d="M7.45387 89.0591C8.69993 89.6411 9.88076 89.8635 10.7093 89.9485C11.5509 90.0335 12.0663 89.9812 12.0663 89.9812C12.0597 88.9087 11.9749 87.954 11.6748 87.0973C11.4008 86.2407 10.9376 85.4756 10.4549 84.789C9.45018 83.4157 8.03449 82.3498 6.59271 81.5193C5.1705 80.6953 3.72872 80.1199 2.63271 79.7537C1.53669 79.3875 0.792969 79.2371 0.792969 79.2371C1.90856 85.2467 4.98783 87.8951 7.45387 89.0461V89.0591Z" fill="#C2A94B"/>
<path id="Vector_34" d="M13.5879 89.9224C15.7147 90.1316 17.3457 89.5889 18.6896 88.7322C20.04 87.8755 21.0382 86.6985 21.795 85.5279C22.6039 84.3574 23.1193 83.1869 23.4846 82.3106C23.863 81.4343 24.0326 80.8392 24.0326 80.8392C21.4557 81.0681 19.4398 81.7286 17.9589 82.6245C16.491 83.5204 15.4668 84.6451 14.8079 85.7307C14.175 86.8227 13.8619 87.8755 13.7118 88.6472C13.6336 89.033 13.5944 89.3534 13.5944 89.5692C13.5879 89.7916 13.5944 89.9093 13.5944 89.9093L13.5879 89.9224Z" fill="#C2A94B"/>
<path id="Vector_35" d="M7.9628 78.0992C9.14362 78.8447 10.2657 79.2109 11.0812 79.407C11.9032 79.6032 12.4251 79.6228 12.4251 79.6228C12.51 79.0932 12.5295 78.5831 12.523 78.0992C12.523 77.6153 12.4839 77.151 12.4056 76.7128C12.249 75.83 11.9098 75.0126 11.4922 74.2606C10.6833 72.7696 9.42415 71.5206 8.10632 70.5136C6.78849 69.5 5.4511 68.7414 4.40727 68.2379C3.36997 67.7278 2.65234 67.4858 2.65234 67.4858C2.97201 73.6067 5.65334 76.6344 7.9628 78.1057V78.0992Z" fill="#C2A94B"/>
<path id="Vector_36" d="M13.9336 79.7603C16.0017 80.2442 17.724 79.9237 19.1397 79.2502C20.5749 78.5766 21.7492 77.55 22.643 76.4906C23.5824 75.4378 24.2805 74.3588 24.7372 73.5348C25.233 72.7174 25.4744 72.155 25.4744 72.155C20.2618 71.8869 17.2804 73.7768 15.6885 75.7778C14.9122 76.7718 14.4555 77.7788 14.2011 78.5243C13.9793 79.2763 13.9336 79.7668 13.9336 79.7668V79.7603Z" fill="#C2A94B"/>
<path id="Vector_37" d="M6.49489 61.8294C6.65146 62.3591 6.82761 62.8495 7.0168 63.3073C7.79967 65.1383 8.82392 66.3939 9.91341 67.2963C10.9833 68.1922 12.0402 68.7088 12.8296 69.0096C13.619 69.3104 14.1344 69.4019 14.1344 69.4019C14.2844 68.8853 14.3823 68.3883 14.4279 67.9044C14.4932 67.4271 14.5193 66.9628 14.4932 66.5116C14.454 65.6091 14.2322 64.759 13.9191 63.9612C13.3189 62.3787 12.2359 60.9727 11.0681 59.7891C9.89384 58.6121 8.67387 57.6769 7.70181 57.0361C6.7428 56.3952 6.06431 56.0552 6.06431 56.0552C5.90121 57.5658 5.99255 58.939 6.15565 60.1423C6.24046 60.7439 6.35789 61.3063 6.49489 61.8294Z" fill="#C2A94B"/>
<path id="Vector_38" d="M16.04 68.5453C15.7138 69.2581 15.6094 69.7354 15.6094 69.7354C17.5926 70.494 19.3476 70.4024 20.8415 69.9251C22.342 69.4412 23.6533 68.5911 24.6776 67.6625C25.741 66.747 26.5826 65.7726 27.1436 65.014C27.7438 64.2751 28.057 63.7454 28.057 63.7454C22.9292 62.7841 19.7194 64.2555 17.8797 66.0211C16.9794 66.9039 16.3792 67.8325 16.0465 68.5387L16.04 68.5453Z" fill="#C2A94B"/>
<path id="Vector_39" d="M10.9518 52.5043C11.4868 54.4268 12.3283 55.8066 13.2874 56.8464C14.2333 57.8796 15.2119 58.5335 15.9491 58.939C16.6863 59.3444 17.1886 59.5014 17.1886 59.5014C17.4105 59.0109 17.567 58.527 17.6845 58.0562C17.8149 57.5919 17.8997 57.1341 17.9389 56.6829C18.0172 55.787 17.9128 54.9107 17.7106 54.0803C17.3256 52.4258 16.4384 50.8891 15.4402 49.5616C14.4421 48.2406 13.3461 47.1486 12.4784 46.3835C11.6107 45.6184 10.9844 45.1868 10.9844 45.1868C10.6256 46.6647 10.5212 48.0314 10.5343 49.2477C10.5343 50.4575 10.6908 51.5365 10.9648 52.5043H10.9518Z" fill="#C2A94B"/>
<path id="Vector_40" d="M19.1907 58.9063C18.7731 59.5667 18.6035 60.031 18.6035 60.031C20.4694 61.0512 22.2178 61.195 23.7639 60.9204C25.3166 60.6457 26.7323 59.9722 27.8674 59.1875C29.0548 58.4224 30.0008 57.5657 30.6662 56.8922C31.3577 56.2382 31.7426 55.7543 31.7426 55.7543C26.791 54.1129 23.4116 55.1396 21.3501 56.6437C20.3389 57.4022 19.6278 58.2393 19.1972 58.8932L19.1907 58.9063Z" fill="#C2A94B"/>
<path id="Vector_41" d="M20.3846 49.3719C21.0631 49.8755 21.5394 50.0913 21.5394 50.0913C22.0874 49.1692 22.4527 48.2799 22.6549 47.4036C22.8572 46.5273 22.8507 45.638 22.7789 44.7944C22.6158 43.1007 21.9373 41.4593 21.1218 40.0141C20.3259 38.582 19.3734 37.3461 18.6101 36.4698C17.8534 35.5936 17.2858 35.0835 17.2858 35.0835C15.1916 40.8381 16.4768 44.6767 18.0295 46.9393C18.8254 48.0902 19.7127 48.8684 20.3912 49.3654L20.3846 49.3719Z" fill="#C2A94B"/>
<path id="Vector_42" d="M32.1533 51.216C33.445 50.6275 34.4758 49.882 35.2391 49.3196C36.0089 48.7573 36.4526 48.3322 36.4526 48.3322C34.117 47.2074 32.0555 46.7562 30.3201 46.7628C28.6043 46.7824 27.143 47.2205 26.0339 47.8287C24.9314 48.4434 24.1224 49.1889 23.594 49.7709C23.0916 50.3725 22.8633 50.8106 22.8633 50.8106C24.5791 52.0662 26.2883 52.4454 27.8541 52.38C29.4394 52.3212 30.9203 51.8373 32.1533 51.2095V51.216Z" fill="#C2A94B"/>
<path id="Vector_43" d="M26.0484 40.485C26.6551 41.0736 27.0987 41.3548 27.0987 41.3548C27.7576 40.5112 28.26 39.6938 28.5601 38.8371C28.8667 37.987 28.9906 37.1107 29.0298 36.2737C29.0885 34.5735 28.6253 32.8471 28.0186 31.3104C27.4184 29.7867 26.629 28.433 25.9962 27.4652C25.3568 26.4974 24.8675 25.9154 24.8675 25.9154C22.0296 31.3365 22.806 35.319 24.0325 37.7581C24.6718 39.0006 25.4482 39.8965 26.0549 40.4785L26.0484 40.485Z" fill="#C2A94B"/>
<path id="Vector_44" d="M33.0612 44.4675C34.6531 44.6309 36.1601 44.3301 37.4844 43.8855C38.8414 43.4735 39.9505 42.8588 40.7986 42.4141C41.6336 41.9564 42.1229 41.5902 42.1229 41.5902C39.957 40.1646 37.9868 39.4583 36.2449 39.2229C34.5356 39.0137 33.0482 39.2687 31.8543 39.7134C30.6865 40.1777 29.7862 40.812 29.186 41.322C28.5989 41.8452 28.3184 42.2506 28.3184 42.2506C29.8515 43.7285 31.4955 44.3301 33.0547 44.474L33.0612 44.4675Z" fill="#C2A94B"/>
<path id="Vector_45" d="M35.1034 34.24C34.9403 34.3838 34.8555 34.4754 34.8555 34.4754C36.1863 36.1494 37.7195 36.9472 39.2656 37.3134C40.8248 37.6927 42.3449 37.5685 43.728 37.32C45.1241 37.0846 46.2984 36.6203 47.2052 36.2998C48.0925 35.9533 48.6274 35.6524 48.6274 35.6524C46.6637 33.9522 44.8175 32.9975 43.1212 32.5332C41.4446 32.0885 39.9572 32.167 38.7046 32.4351C37.4781 32.7359 36.5125 33.2525 35.8536 33.6776C35.5209 33.8868 35.273 34.0895 35.1164 34.24H35.1034Z" fill="#C2A94B"/>
<path id="Vector_46" d="M32.833 32.4285C33.3549 33.089 33.7594 33.4291 33.7594 33.4291C34.5227 32.677 35.1425 31.9446 35.547 31.1338C35.958 30.3229 36.2059 29.4858 36.3559 28.6554C36.6365 26.9813 36.3886 25.183 36.0036 23.607C35.6057 22.0114 35.0055 20.5662 34.5031 19.5199C34.0008 18.4736 33.5833 17.8328 33.5833 17.8328C30.0538 22.8223 30.3018 26.8832 31.2021 29.4662C31.6587 30.7741 32.3176 31.7681 32.8396 32.4285H32.833Z" fill="#C2A94B"/>
<path id="Vector_47" d="M50.1728 19.9058C40.1978 21.2594 39.3301 29.0935 39.3301 29.0935C47.1914 30.9311 50.1728 19.9058 50.1728 19.9058Z" fill="#C2A94B"/>
</g>
<path id="Vector_48" d="M60.2646 15.0928C60.8843 16.6753 62.3196 17.4666 63.9962 16.8061C65.1249 16.3614 65.5946 15.6552 65.836 14.8705L67.4278 18.9314C67.741 19.7357 67.5583 20.442 66.6319 20.8082C65.7316 21.1613 65.0596 20.8474 64.7204 19.9711L64.1985 18.6437L62.0195 19.5003L62.6262 21.0567C63.3438 22.8877 65.2553 24.0124 67.5322 23.1166C69.7829 22.2337 70.6832 20.115 69.8025 17.8589L66.0056 8.16112C65.1184 5.90505 63.1351 4.89145 60.8387 5.80042C58.5618 6.69631 57.7985 8.78889 58.6727 11.0188L60.2711 15.1059L60.2646 15.0928ZM61.739 8.09572C62.561 7.76876 63.2134 8.18073 63.4678 8.82813L65.0596 12.889C65.301 13.5168 65.0596 14.2165 64.2572 14.5304C63.4352 14.8574 62.8089 14.5239 62.5545 13.8699L60.9431 9.75671C60.6886 9.10932 60.93 8.40307 61.7324 8.08918L61.739 8.09572Z" fill="#C2A94B"/>
<path id="Vector_49" d="M69.3133 9.19428L71.6292 8.61228L71.1269 6.59817C70.892 5.65651 71.1921 4.97642 72.0533 4.75408C72.9144 4.53828 73.5146 4.94372 73.7691 5.95732C74.2127 7.73601 73.9191 9.10927 72.9079 11.6988C71.3683 16.1652 71.2313 17.9504 71.8184 20.2981L72.0076 21.0566L79.484 19.1798L78.8708 16.7276L74.2062 17.9047C73.9452 16.8584 74.0626 15.4459 74.989 12.7386C76.3264 9.90707 76.7766 7.82102 76.2155 5.57804C75.6414 3.28273 74.167 1.70675 71.4074 2.39992C69.0392 2.995 68.2955 5.12682 68.7783 7.05592L69.3133 9.19428Z" fill="#C2A94B"/>
<path id="Vector_50" d="M83.7392 14.8573L84.2155 18.5455L86.6684 18.2316L86.1987 14.5434L87.3991 14.3865L87.1055 12.1174L85.9051 12.2743L84.3851 0.43811L82.1735 0.719301L78.8789 13.4448L79.1333 15.4524L83.7457 14.8573H83.7392ZM82.7084 6.81396L83.4522 12.5816L81.2406 12.8628L82.7084 6.80742V6.81396Z" fill="#C2A94B"/>
<path id="Vector_51" d="M93.0757 8.6855L88.2949 8.79675L88.3417 10.8169L93.1224 10.7056L93.0757 8.6855Z" fill="#C2A94B"/>
<path id="Vector_52" d="M101.536 15.9691L96.7414 15.6225C96.8197 14.5501 97.3677 13.2357 99.0965 10.96C101.256 8.68429 102.326 6.84674 102.495 4.53836C102.665 2.17112 101.758 0.2224 98.9138 0.0131419C96.4739 -0.16342 95.1104 1.62836 94.9669 3.61631L94.8103 5.82007L97.1981 5.99009L97.3481 3.92366C97.4199 2.95584 97.9157 2.4 98.7964 2.46539C99.6837 2.53078 100.127 3.0997 100.049 4.146C99.9185 5.97047 99.2074 7.19332 97.4394 9.33169C94.582 13.0918 93.897 14.7462 93.7208 17.1658L93.6621 17.944L101.354 18.4998L101.536 15.9756V15.9691Z" fill="#C2A94B"/>
<path id="Vector_53" d="M106.278 19.7422C108.672 20.2327 110.558 18.9379 111.04 16.5379L113.109 6.34966C113.598 3.94972 112.371 2.02062 109.971 1.53017C107.602 1.04626 105.697 2.33451 105.208 4.73444L103.14 14.9227C102.651 17.3227 103.903 19.2583 106.278 19.7422ZM105.704 15.6944L107.87 5.03525C108.013 4.32247 108.659 3.85163 109.475 4.01512C110.323 4.18514 110.727 4.87177 110.584 5.58456L108.418 16.2437C108.274 16.9565 107.628 17.4273 106.787 17.2573C105.971 17.0938 105.56 16.4006 105.71 15.6878L105.704 15.6944Z" fill="#C2A94B"/>
<path id="Vector_54" d="M116.99 13.1114C113.271 16.0148 112.188 17.4404 111.399 19.7292L111.145 20.4681L118.438 22.9727L119.26 20.5793L114.713 19.0164C115.059 17.9962 115.927 16.8715 118.177 15.1124C120.839 13.4645 122.353 11.9604 123.096 9.76976C123.866 7.52677 123.481 5.40803 120.787 4.47944C118.477 3.68819 116.696 5.06798 116.05 6.95131L115.339 9.03736L117.603 9.81554L118.275 7.85374C118.588 6.93823 119.215 6.52625 120.05 6.81398C120.891 7.10172 121.172 7.76873 120.833 8.7627C120.239 10.4956 119.247 11.4896 116.99 13.1048V13.1114Z" fill="#C2A94B"/>
<path id="Vector_55" d="M120.188 19.6572L124.376 21.6778L122.771 25.026L124.996 26.0984L126.607 22.7503L127.697 23.2734L128.688 21.2135L127.599 20.6904L132.759 9.93974L130.75 8.97192L121.068 17.8327L120.194 19.6506L120.188 19.6572ZM127.886 14.3734L125.367 19.6114L123.358 18.6436L127.886 14.3734Z" fill="#C2A94B"/>
<path id="Vector_56" d="M52.5745 12.5621L59.7508 26.3928L62.1059 25.1568L53.8466 9.25317L49.9258 11.3065L51.0087 13.386L52.5745 12.5621Z" fill="#C2A94B"/>
<g id="Group_7">
<path id="Vector_57" d="M135.93 155.662C137.639 155.924 139.224 156.591 140.646 157.454C142.062 158.304 143.269 159.305 144.124 160.096C144.978 160.887 145.468 161.469 145.468 161.469C144.013 161.933 142.688 162.215 141.488 162.345C140.275 162.45 139.178 162.391 138.206 162.241C136.269 161.953 134.768 161.181 133.653 160.364C132.537 159.54 131.787 158.638 131.304 157.944C130.828 157.251 130.619 156.767 130.619 156.767C131.539 156.212 132.459 155.911 133.34 155.734C134.214 155.551 135.081 155.544 135.936 155.669L135.93 155.662Z" fill="#C2A94B"/>
<path id="Vector_58" d="M128.956 148.096C129.178 147.37 129.465 146.69 129.791 146.069C130.45 144.853 131.181 143.774 131.774 143.035C132.068 142.669 132.329 142.381 132.518 142.185C132.701 141.982 132.805 141.871 132.805 141.871C133.875 144.271 134.234 146.285 134.182 148.044C134.156 148.914 134.025 149.724 133.816 150.431C133.601 151.13 133.314 151.758 133.001 152.307C132.688 152.857 132.335 153.334 131.996 153.74C131.644 154.132 131.298 154.439 130.991 154.688C130.385 155.178 129.948 155.407 129.948 155.407C128.741 153.661 128.415 151.922 128.512 150.346C128.565 149.554 128.734 148.815 128.963 148.096H128.956Z" fill="#C2A94B"/>
<path id="Vector_59" d="M140.333 152.517C139.766 151.896 139.498 151.444 139.498 151.444C140.333 150.771 141.188 150.326 142.049 150.051C142.904 149.77 143.752 149.626 144.606 149.639C145.461 149.639 146.316 149.777 147.151 149.986C147.966 150.182 148.769 150.463 149.525 150.79C151.032 151.444 152.363 152.268 153.316 152.935C154.262 153.602 154.829 154.112 154.829 154.112C153.446 154.766 152.2 155.25 151.006 155.512C149.812 155.773 148.729 155.871 147.751 155.858C145.794 155.826 144.189 155.25 142.982 154.596C141.768 153.929 140.901 153.138 140.333 152.517Z" fill="#C2A94B"/>
<path id="Vector_60" d="M139.583 149.332C139.048 149.908 138.644 150.189 138.644 150.189C137.221 148.619 136.66 146.939 136.549 145.356C136.445 143.774 136.804 142.289 137.254 140.949C137.489 140.288 137.763 139.68 138.043 139.137C138.311 138.581 138.572 138.085 138.82 137.673C139.303 136.855 139.687 136.384 139.687 136.384C142.408 140.785 142.245 144.362 141.253 146.703C140.79 147.907 140.105 148.75 139.577 149.326L139.583 149.332Z" fill="#C2A94B"/>
<path id="Vector_61" d="M148.56 145.945C147.914 145.402 147.588 144.99 147.588 144.99C149.056 143.421 150.745 142.767 152.416 142.518C154.099 142.289 155.88 142.584 157.445 143.009C159.024 143.453 160.453 144.094 161.477 144.63C162.502 145.167 163.134 145.598 163.134 145.598C160.629 147.318 158.287 148.031 156.356 148.273C154.379 148.469 152.748 148.142 151.463 147.652C150.171 147.155 149.212 146.481 148.573 145.945H148.56Z" fill="#C2A94B"/>
<path id="Vector_62" d="M146.584 143.865C144.959 142.492 144.19 140.916 143.863 139.353C143.531 137.777 143.72 136.293 143.981 134.887C144.261 133.5 144.751 132.33 145.103 131.434C145.475 130.558 145.788 130.028 145.788 130.028C147.426 132.042 148.326 133.919 148.743 135.632C149.148 137.332 149.017 138.81 148.717 140.059C148.411 141.302 147.837 142.23 147.393 142.878C146.943 143.519 146.584 143.859 146.584 143.859V143.865Z" fill="#C2A94B"/>
<path id="Vector_63" d="M158.947 139.654C157.609 139.34 156.553 138.784 155.841 138.333C155.13 137.882 154.752 137.516 154.752 137.516C155.411 136.672 156.076 135.985 156.84 135.495C157.596 135.004 158.405 134.671 159.214 134.436C160.845 133.978 162.639 134.03 164.264 134.259C165.882 134.488 167.382 134.933 168.465 135.325C169.555 135.717 170.233 136.064 170.233 136.064C169.666 136.567 169.105 137.019 168.563 137.417C168.002 137.803 167.447 138.13 166.906 138.418C165.83 138.987 164.838 139.386 163.866 139.615C161.928 140.072 160.284 139.974 158.94 139.654H158.947Z" fill="#C2A94B"/>
<path id="Vector_64" d="M154.288 135.462C153.936 136.168 153.603 136.528 153.603 136.528C151.803 135.371 150.863 133.932 150.328 132.421C149.793 130.904 149.754 129.381 149.859 127.981C149.937 126.562 150.283 125.339 150.511 124.411C150.753 123.489 150.994 122.926 150.994 122.926C152.886 124.705 154.041 126.458 154.673 128.099C155.274 129.714 155.371 131.218 155.234 132.493C155.058 133.742 154.647 134.762 154.295 135.462H154.288Z" fill="#C2A94B"/>
<path id="Vector_65" d="M165.315 130.721C163.925 130.571 162.816 130.172 162.053 129.819C161.289 129.466 160.865 129.152 160.865 129.152C161.413 128.23 161.994 127.471 162.672 126.876C163.344 126.274 164.121 125.849 164.897 125.516C166.45 124.842 168.211 124.646 169.868 124.666C171.532 124.692 173.045 124.921 174.181 125.169C175.309 125.411 176.027 125.666 176.027 125.666C172.008 130.283 168.022 130.996 165.308 130.734L165.315 130.721Z" fill="#C2A94B"/>
<path id="Vector_66" d="M159.593 128.328C157.668 127.432 156.513 126.104 155.815 124.705C155.085 123.273 154.811 121.749 154.758 120.363C154.654 118.95 154.784 117.669 154.934 116.74C155.045 115.792 155.202 115.197 155.202 115.197C159.469 118.218 160.636 121.546 160.669 124.11C160.662 125.372 160.401 126.438 160.141 127.183C159.867 127.916 159.586 128.328 159.586 128.328H159.593Z" fill="#C2A94B"/>
<path id="Vector_67" d="M170.435 121.017C169.039 121.056 167.89 120.808 167.088 120.559C166.285 120.311 165.822 120.056 165.822 120.056C166.651 118.074 167.819 116.76 169.339 115.91C170.807 115.04 172.496 114.595 174.147 114.393C175.784 114.19 177.37 114.229 178.511 114.321C179.659 114.412 180.403 114.563 180.403 114.563C178.707 117.106 176.926 118.722 175.171 119.67C173.442 120.631 171.85 120.978 170.435 121.01V121.017Z" fill="#C2A94B"/>
<path id="Vector_68" d="M164.452 119.408C162.423 118.774 161.099 117.616 160.218 116.315C159.351 115.014 158.829 113.523 158.594 112.156C158.353 110.789 158.248 109.481 158.287 108.546C158.307 108.062 158.32 107.677 158.326 107.415C158.346 107.14 158.359 106.99 158.359 106.99C159.514 107.598 160.486 108.246 161.301 108.926C162.11 109.599 162.743 110.292 163.252 110.992C164.27 112.391 164.805 113.837 164.948 115.079C165.111 116.328 165.027 117.44 164.837 118.198C164.655 118.957 164.446 119.402 164.446 119.402L164.452 119.408Z" fill="#C2A94B"/>
<path id="Vector_69" d="M174.218 110.711C172.848 110.94 171.674 110.848 170.845 110.711C170.017 110.574 169.527 110.384 169.527 110.384C169.769 109.338 170.206 108.468 170.682 107.709C171.165 106.951 171.765 106.323 172.444 105.8C173.827 104.754 175.405 104.08 177.01 103.655C178.602 103.23 180.161 103.06 181.323 102.994C182.484 102.929 183.241 102.981 183.241 102.981C182.562 104.355 181.838 105.499 181.094 106.454C180.318 107.402 179.515 108.147 178.733 108.743C177.18 109.933 175.582 110.475 174.211 110.704L174.218 110.711Z" fill="#C2A94B"/>
<path id="Vector_70" d="M168.086 109.926C165.998 109.573 164.523 108.599 163.473 107.428C162.938 106.84 162.54 106.199 162.175 105.538C161.81 104.871 161.529 104.191 161.307 103.531C160.896 102.21 160.629 100.935 160.518 99.9929C160.459 99.5221 160.433 99.1363 160.426 98.8682C160.413 98.5935 160.4 98.4431 160.4 98.4431C162.86 99.339 164.556 100.49 165.776 101.752C166.376 102.38 166.866 103.034 167.231 103.681C167.583 104.322 167.831 104.963 168.001 105.578C168.353 106.807 168.392 107.906 168.301 108.684C168.229 109.462 168.079 109.933 168.079 109.933L168.086 109.926Z" fill="#C2A94B"/>
<path id="Vector_71" d="M176.594 99.9929C175.27 100.405 174.102 100.47 173.261 100.444C172.419 100.418 171.91 100.3 171.91 100.3C172.008 99.2278 172.282 98.3057 172.687 97.4948C173.098 96.684 173.567 95.9777 174.174 95.363C175.368 94.1402 176.934 93.2639 178.428 92.6296C179.941 91.9953 181.455 91.616 182.596 91.4002C183.731 91.1844 184.495 91.1321 184.495 91.1321C182.609 96.9521 179.217 99.1754 176.594 99.9863V99.9929Z" fill="#C2A94B"/>
<path id="Vector_72" d="M165.503 98.1749C164.283 97.1482 163.494 95.86 162.841 94.5979C162.215 93.3358 161.869 92.1129 161.589 91.1909C161.334 90.2754 161.256 89.6672 161.256 89.6672C163.787 90.2296 165.653 91.1517 167.036 92.2372C168.419 93.3227 169.215 94.5652 169.743 95.7292C170.291 96.8997 170.396 97.9787 170.448 98.7634C170.487 99.5482 170.415 100.039 170.415 100.039C168.302 99.9667 166.71 99.2016 165.496 98.1814L165.503 98.1749Z" fill="#C2A94B"/>
<path id="Vector_73" d="M177.546 89.0591C176.3 89.6411 175.119 89.8635 174.291 89.9485C173.449 90.0335 172.934 89.9812 172.934 89.9812C172.94 88.9087 173.025 87.954 173.325 87.0973C173.599 86.2407 174.062 85.4756 174.545 84.789C175.55 83.4157 176.965 82.3498 178.407 81.5193C179.829 80.6953 181.271 80.1199 182.367 79.7537C183.463 79.3875 184.207 79.2371 184.207 79.2371C183.091 85.2467 180.012 87.8951 177.546 89.0461V89.0591Z" fill="#C2A94B"/>
<path id="Vector_74" d="M171.414 89.9224C169.287 90.1316 167.656 89.5889 166.312 88.7322C164.961 87.8755 163.963 86.6985 163.206 85.5279C162.397 84.3574 161.882 83.1869 161.517 82.3106C161.138 81.4343 160.969 80.8392 160.969 80.8392C163.546 81.0681 165.562 81.7286 167.042 82.6245C168.51 83.5204 169.535 84.6451 170.194 85.7307C170.826 86.8227 171.14 87.8755 171.29 88.6472C171.368 89.033 171.407 89.3534 171.407 89.5692C171.414 89.7916 171.407 89.9093 171.407 89.9093L171.414 89.9224Z" fill="#C2A94B"/>
<path id="Vector_75" d="M177.038 78.0992C175.857 78.8447 174.735 79.2109 173.92 79.407C173.098 79.6032 172.576 79.6228 172.576 79.6228C172.491 79.0932 172.471 78.5831 172.478 78.0992C172.478 77.6153 172.517 77.151 172.595 76.7128C172.752 75.83 173.091 75.0126 173.509 74.2606C174.317 72.7696 175.577 71.5206 176.894 70.5136C178.212 69.5 179.55 68.7414 180.593 68.2379C181.631 67.7278 182.348 67.4858 182.348 67.4858C182.029 73.6067 179.347 76.6344 177.038 78.1057V78.0992Z" fill="#C2A94B"/>
<path id="Vector_76" d="M171.068 79.7603C169 80.2442 167.278 79.9237 165.862 79.2502C164.427 78.5766 163.252 77.55 162.359 76.4906C161.419 75.4378 160.721 74.3588 160.265 73.5348C159.769 72.7174 159.527 72.155 159.527 72.155C164.74 71.8869 167.721 73.7768 169.313 75.7778C170.09 76.7718 170.546 77.7788 170.801 78.5243C171.022 79.2763 171.068 79.7668 171.068 79.7668V79.7603Z" fill="#C2A94B"/>
<path id="Vector_77" d="M178.499 61.8294C178.342 62.3591 178.166 62.8495 177.977 63.3073C177.194 65.1383 176.17 66.3939 175.08 67.2963C174.01 68.1922 172.953 68.7088 172.164 69.0096C171.374 69.3104 170.859 69.4019 170.859 69.4019C170.709 68.8853 170.611 68.3883 170.565 67.9044C170.5 67.4271 170.474 66.9628 170.5 66.5116C170.539 65.6091 170.761 64.759 171.074 63.9612C171.675 62.3787 172.758 60.9727 173.925 59.7891C175.1 58.6121 176.32 57.6769 177.292 57.0361C178.251 56.3952 178.929 56.0552 178.929 56.0552C179.092 57.5658 179.001 58.939 178.838 60.1423C178.753 60.7439 178.636 61.3063 178.499 61.8294Z" fill="#C2A94B"/>
<path id="Vector_78" d="M168.955 68.5453C169.281 69.2581 169.385 69.7354 169.385 69.7354C167.402 70.494 165.647 70.4024 164.153 69.9251C162.652 69.4412 161.341 68.5911 160.317 67.6625C159.253 66.747 158.412 65.7726 157.851 65.014C157.251 64.2751 156.938 63.7454 156.938 63.7454C162.065 62.7841 165.275 64.2555 167.115 66.0211C168.015 66.9039 168.615 67.8325 168.948 68.5387L168.955 68.5453Z" fill="#C2A94B"/>
<path id="Vector_79" d="M174.042 52.5043C173.508 54.4268 172.666 55.8066 171.707 56.8464C170.761 57.8796 169.782 58.5335 169.045 58.939C168.308 59.3444 167.806 59.5014 167.806 59.5014C167.584 59.0109 167.427 58.527 167.31 58.0562C167.179 57.5919 167.095 57.1341 167.055 56.6829C166.977 55.787 167.081 54.9107 167.284 54.0803C167.669 52.4258 168.556 50.8891 169.554 49.5616C170.552 48.2406 171.648 47.1486 172.516 46.3835C173.384 45.6184 174.01 45.1868 174.01 45.1868C174.369 46.6647 174.473 48.0314 174.46 49.2477C174.46 50.4575 174.303 51.5365 174.029 52.5043H174.042Z" fill="#C2A94B"/>
<path id="Vector_80" d="M165.81 58.9063C166.227 59.5667 166.397 60.031 166.397 60.031C164.531 61.0512 162.783 61.195 161.237 60.9204C159.684 60.6457 158.268 59.9722 157.133 59.1875C155.946 58.4224 155 57.5657 154.334 56.8922C153.643 56.2382 153.258 55.7543 153.258 55.7543C158.209 54.1129 161.589 55.1396 163.65 56.6437C164.662 57.4022 165.373 58.2393 165.803 58.8932L165.81 58.9063Z" fill="#C2A94B"/>
<path id="Vector_81" d="M164.616 49.3719C163.937 49.8755 163.461 50.0913 163.461 50.0913C162.913 49.1692 162.548 48.2799 162.345 47.4036C162.143 46.5273 162.15 45.638 162.221 44.7944C162.385 43.1007 163.063 41.4593 163.879 40.0141C164.674 38.582 165.627 37.3461 166.39 36.4698C167.147 35.5936 167.715 35.0835 167.715 35.0835C169.809 40.8381 168.524 44.6767 166.971 46.9393C166.175 48.0902 165.288 48.8684 164.609 49.3654L164.616 49.3719Z" fill="#C2A94B"/>
<path id="Vector_82" d="M152.84 51.216C151.549 50.6275 150.518 49.882 149.754 49.3196C148.985 48.7573 148.541 48.3322 148.541 48.3322C150.877 47.2074 152.938 46.7562 154.673 46.7628C156.389 46.7824 157.851 47.2205 158.96 47.8287C160.062 48.4434 160.871 49.1889 161.4 49.7709C161.902 50.3725 162.13 50.8106 162.13 50.8106C160.415 52.0662 158.705 52.4454 157.14 52.38C155.554 52.3212 154.073 51.8373 152.84 51.2095V51.216Z" fill="#C2A94B"/>
<path id="Vector_83" d="M158.953 40.485C158.347 41.0736 157.903 41.3548 157.903 41.3548C157.244 40.5112 156.742 39.6938 156.442 38.8371C156.135 37.987 156.011 37.1107 155.972 36.2737C155.913 34.5735 156.376 32.8471 156.983 31.3104C157.583 29.7867 158.373 28.433 159.005 27.4652C159.645 26.4974 160.134 25.9154 160.134 25.9154C162.972 31.3365 162.196 35.319 160.969 37.7581C160.33 39.0006 159.553 39.8965 158.947 40.4785L158.953 40.485Z" fill="#C2A94B"/>
<path id="Vector_84" d="M151.941 44.4675C150.349 44.6309 148.842 44.3301 147.517 43.8855C146.16 43.4735 145.051 42.8588 144.203 42.4141C143.368 41.9564 142.879 41.5902 142.879 41.5902C145.045 40.1646 147.015 39.4583 148.757 39.2229C150.466 39.0137 151.954 39.2687 153.148 39.7134C154.315 40.1777 155.216 40.812 155.816 41.322C156.403 41.8452 156.683 42.2506 156.683 42.2506C155.15 43.7285 153.506 44.3301 151.947 44.474L151.941 44.4675Z" fill="#C2A94B"/>
<path id="Vector_85" d="M149.897 34.24C150.06 34.3838 150.145 34.4754 150.145 34.4754C148.814 36.1494 147.281 36.9472 145.735 37.3134C144.176 37.6927 142.656 37.5685 141.272 37.32C139.876 37.0846 138.702 36.6203 137.795 36.2998C136.908 35.9533 136.373 35.6524 136.373 35.6524C138.337 33.9522 140.183 32.9975 141.879 32.5332C143.556 32.0885 145.043 32.167 146.296 32.4351C147.522 32.7359 148.488 33.2525 149.147 33.6776C149.48 33.8868 149.727 34.0895 149.884 34.24H149.897Z" fill="#C2A94B"/>
<path id="Vector_86" d="M152.161 32.4285C151.639 33.089 151.234 33.4291 151.234 33.4291C150.471 32.677 149.851 31.9446 149.447 31.1338C149.036 30.3229 148.788 29.4858 148.638 28.6554C148.357 26.9813 148.605 25.183 148.99 23.607C149.388 22.0114 149.988 20.5662 150.491 19.5199C150.993 18.4736 151.411 17.8328 151.411 17.8328C154.94 22.8223 154.692 26.8832 153.792 29.4662C153.335 30.7741 152.676 31.7681 152.154 32.4285H152.161Z" fill="#C2A94B"/>
<path id="Vector_87" d="M134.828 19.9058C144.803 21.2594 145.671 29.0935 145.671 29.0935C137.81 30.9311 134.828 19.9058 134.828 19.9058Z" fill="#C2A94B"/>
</g>
</g>
</g>
<defs>
<clipPath id="clip0_2804_6029">
<rect width="184" height="177" fill="white" transform="translate(0.5)"/>
</clipPath>
</defs>
</svg>
