<svg width="500" height="500" viewBox="0 0 500 500" fill="none" xmlns="http://www.w3.org/2000/svg">
<path d="M250 475C373.028 475 472.763 374.264 472.763 250C472.763 125.736 373.028 25 250 25C126.972 25 27.2373 125.736 27.2373 250C27.2373 374.264 126.972 475 250 475Z" fill="#B0B0B0"/>
<path d="M120.461 119.708C85.7728 154.745 66.8028 200.73 66.8028 250.547C66.8028 299.818 85.7728 346.35 120.461 381.387C155.149 416.423 201.219 435.584 249.999 435.584C298.779 435.584 344.85 416.423 379.538 381.387C414.226 346.35 433.196 299.818 433.196 250.547C433.196 201.277 414.226 154.745 379.538 119.708C307.993 47.4453 192.005 47.4453 120.461 119.708Z" fill="#013171"/>
<path d="M250 38.6862C134.554 38.6862 40.2458 133.394 40.2458 250C40.2458 366.606 134.012 461.314 249.458 461.314C364.905 461.314 458.671 366.606 458.671 250C459.213 133.394 365.447 38.6862 250 38.6862ZM378.997 380.84C344.309 415.876 298.781 435.037 249.458 435.037C200.678 435.037 154.608 415.876 119.92 380.84C85.2319 345.803 66.2619 299.818 66.2619 250C66.2619 200.73 85.2319 154.197 119.92 119.161C191.464 46.8979 307.453 46.8979 378.455 119.161C413.143 154.197 432.113 200.183 432.113 250C432.655 299.27 413.685 345.803 378.997 380.84Z" fill="#F3CC23"/>
<path d="M374.66 282.847L298.78 117.518C290.65 100 271.68 88.5038 250.542 88.5038C229.946 88.5038 210.976 99.4527 202.846 116.423C223.442 118.066 244.58 162.956 249.458 173.358L340.514 381.387C348.102 376.46 354.064 370.986 354.064 370.986C380.081 347.993 388.211 313.504 374.66 282.847Z" fill="white"/>
<path d="M297.696 340.329C297.696 302.555 271.68 278.467 239.702 278.467H205.556L236.45 207.847C238.076 177.19 213.144 129.562 197.968 126.277L126.424 282.847C112.332 312.956 121.004 347.993 147.02 370.438C147.02 370.438 152.44 375.913 160.57 380.84L178.456 339.781H297.696V340.329Z" fill="white"/>
</svg>
