<svg width="61" height="61" viewBox="0 0 61 61" fill="none" xmlns="http://www.w3.org/2000/svg">
<g clip-path="url(#clip0_973_2891)">
<path d="M30.6666 60.3518C24.7332 60.3518 18.933 58.5924 13.9995 55.296C9.06613 51.9995 5.22095 47.3141 2.95033 41.8322C0.679693 36.3505 0.0855003 30.3186 1.24306 24.4991C2.40062 18.6797 5.25783 13.3342 9.45338 9.13864C13.649 4.94303 18.9944 2.08582 24.8139 0.928264C30.6333 -0.229292 36.6653 0.364797 42.147 2.63542C47.6289 4.90606 52.3142 8.75122 55.6106 13.6846C58.9071 18.6181 60.6666 24.4184 60.6666 30.3518C60.6577 38.3056 57.494 45.931 51.87 51.5551C46.2458 57.1792 38.6204 60.3429 30.6666 60.3518ZM30.6666 3.79544C25.4143 3.79544 20.2799 5.353 15.9127 8.27105C11.5455 11.1891 8.1417 15.3366 6.13172 20.1891C4.12173 25.0416 3.59598 30.3813 4.62066 35.5327C5.64534 40.6841 8.17458 45.416 11.8885 49.13C15.6025 52.844 20.3344 55.3732 25.4858 56.3979C30.6372 57.4226 35.9768 56.8967 40.8293 54.8867C45.6819 52.8767 49.8294 49.4728 52.7474 45.1056C55.6655 40.7385 57.223 35.6041 57.223 30.3518C57.2208 23.3074 54.4229 16.5517 49.4436 11.5686C44.4645 6.58545 37.711 3.78223 30.6666 3.77439V3.79544Z" fill="#FFD600"/>
<path d="M41.7571 36.0055C41.6174 35.8365 41.4691 35.6717 41.3336 35.507C41.0794 35.2599 40.8424 35.0259 40.5798 34.7961C40.4019 34.6314 40.2239 34.4796 40.0375 34.3366L39.7582 34.1242C39.3346 33.7904 38.8855 33.487 38.4578 33.214L38.2629 33.0925C37.3947 32.5464 36.6283 32.1432 36.1835 31.9178L35.7133 31.688L34.6883 31.1851L22.3424 37.9389C18.9329 39.9113 19.6107 45.2822 20.8135 48.6851L42.3333 36.8031C42.1657 36.5197 41.9727 36.2527 41.7571 36.0055Z" fill="url(#paint0_linear_973_2891)"/>
<path d="M46.5 29.8885C46.5 29.5626 46.4703 29.2369 46.4323 28.911C46.3941 28.5831 46.3348 28.258 46.2549 27.9378C46.0201 26.884 45.5604 25.8936 44.9071 25.0349C44.8098 24.9078 44.7053 24.7864 44.5944 24.671C44.4488 24.5184 44.2921 24.377 44.1255 24.2478L43.9184 24.0785L43.6227 23.8754L43.3733 23.7442L43.1918 23.6469L21.6443 12.0185C21.4108 12.6725 21.2147 13.3394 21.057 14.0158C20.3345 17.1598 20.3936 20.9387 23.1695 22.5086L37.2514 30.045L37.6739 30.2736C38.0964 30.5021 38.7809 30.9041 39.5667 31.4373L39.7485 31.56C40.1329 31.8266 40.5343 32.1228 40.9272 32.4444L41.1765 32.6517C41.3459 32.7839 41.5081 32.9252 41.6623 33.0749C41.9031 33.2949 42.1144 33.498 42.3383 33.7562C42.4777 33.9128 42.6128 34.0693 42.7311 34.23C42.913 34.4585 43.073 34.7035 43.2087 34.9621C43.4234 35.3375 43.5558 35.7545 43.5974 36.1851C43.82 36.043 44.0318 35.8845 44.2311 35.7111C44.3494 35.6011 44.455 35.4785 44.569 35.36C44.6408 35.2838 44.7211 35.2119 44.7887 35.1315C45.0626 34.8015 45.3019 34.4441 45.5027 34.0651C45.5872 33.917 45.655 33.7815 45.7183 33.642C46.0163 32.9664 46.2265 32.2553 46.3436 31.5261C46.4234 31.0662 46.4672 30.6007 46.4746 30.134V29.8842L46.5 29.8885Z" fill="url(#paint1_linear_973_2891)"/>
</g>
<defs>
<linearGradient id="paint0_linear_973_2891" x1="34.3698" y1="33.993" x2="34.963" y2="31.0948" gradientUnits="userSpaceOnUse">
<stop stop-color="white"/>
<stop offset="1" stop-color="white" stop-opacity="0.45"/>
</linearGradient>
<linearGradient id="paint1_linear_973_2891" x1="34.2023" y1="20.0964" x2="32.0736" y2="29.3066" gradientUnits="userSpaceOnUse">
<stop stop-color="white"/>
<stop offset="1" stop-color="#CFCCCC"/>
</linearGradient>
<clipPath id="clip0_973_2891">
<rect width="60" height="60" fill="white" transform="translate(0.666626 0.351807)"/>
</clipPath>
</defs>
</svg>
