<svg width="745" height="668" viewBox="0 0 745 668" fill="none" xmlns="http://www.w3.org/2000/svg">
<path fill-rule="evenodd" clip-rule="evenodd" d="M0.891113 0.304688L1.70266 556.213H259.142C260.631 617.658 310.908 667.011 372.712 667.011C434.516 667.011 484.793 617.658 486.283 556.213H744.534L743.722 0.304688H0.891113ZM372.712 663.011C313.118 663.011 264.632 615.449 263.143 556.213H358.891C360.192 562.656 365.886 567.507 372.712 567.507C379.539 567.507 385.232 562.656 386.533 556.213H482.282C480.793 615.449 432.307 663.011 372.712 663.011ZM386.762 552.213H482.31C481.67 492.23 432.847 443.802 372.712 443.802C312.578 443.802 263.754 492.23 263.114 552.213H358.662C359.268 544.984 365.327 539.307 372.712 539.307C380.097 539.307 386.156 544.984 386.762 552.213ZM362.682 552.213C363.273 547.198 367.538 543.307 372.712 543.307C377.886 543.307 382.151 547.198 382.742 552.213H362.682ZM363.007 556.213H382.417C381.201 560.426 377.317 563.507 372.712 563.507C368.108 563.507 364.223 560.426 363.007 556.213ZM372.712 439.802C435.056 439.802 485.67 490.021 486.311 552.213H740.528L739.728 4.30469H524.976V159H442.79C442.366 197.341 411.154 228.29 372.713 228.29C334.272 228.29 303.06 197.341 302.635 159H220.448V4.30469H4.89696L5.69682 552.213H259.114C259.754 490.021 310.369 439.802 372.712 439.802ZM306.635 159C307.06 195.131 336.481 224.29 372.713 224.29C408.944 224.29 438.366 195.131 438.79 159H306.635ZM520.976 4.30469H455.686V57.4816H289.739V4.30469H224.448V155H520.976V4.30469ZM293.739 4.30469H451.686V53.4816H293.739V4.30469Z" fill="url(#paint0_linear_1454_1019)"/>
<defs>
<linearGradient id="paint0_linear_1454_1019" x1="372.713" y1="0.304687" x2="372.713" y2="667.011" gradientUnits="userSpaceOnUse">
<stop stop-color="white" stop-opacity="0.4"/>
<stop offset="1" stop-color="white" stop-opacity="0"/>
</linearGradient>
</defs>
</svg>
